<?xml version="1.0" encoding="iso-8859-1"?>
<!-- Generator: Adobe Illustrator 19.0.0, SVG Export Plug-In . SVG Version: 6.00 Build 0)  -->
<svg version="1.1" id="Layer_1" xmlns="http://www.w3.org/2000/svg" xmlns:xlink="http://www.w3.org/1999/xlink" x="0px" y="0px"
	 viewBox="0 0 511.999 511.999" style="enable-background:new 0 0 511.999 511.999;" xml:space="preserve">
<g>
	<g>
		<rect x="225.503" y="287.865" width="48.251" height="15.656"/>
	</g>
</g>
<g>
	<g>
		<rect x="177.242" y="336.116" width="80.428" height="15.656"/>
	</g>
</g>
<g>
	<g>
		<rect x="193.086" y="287.834" width="16.699" height="15.656"/>
	</g>
</g>
<g>
	<g>
		<rect x="145.075" y="335.844" width="15.656" height="15.656"/>
	</g>
</g>
<g>
	<g>
		<path d="M511.999,319.819l-42.607-31.956H333.3l-45.888-45.887l131.115-106.241v143.748h15.656V111.446H0v289.107h434.182v-40.705
			h-15.656v13.242l-21.316-21.315h72.181L511.999,319.819z M404.313,127.102l-149.415,121.07h-74.878L30.749,127.102H404.313z
			 M15.656,135.017l131.861,106.949L15.656,373.828V135.017z M273.758,336.12v15.656H375.07l33.123,33.122H26.725l133.016-133.016
			l14.729,11.946h85.974l14.736-11.941l35.977,35.977h-21.315v15.656h174.329l21.733,16.301l-21.733,16.301H273.758z"/>
	</g>
</g>
<g>
	<g>
		<rect x="153.425" y="175.113" width="128.376" height="15.656"/>
	</g>
</g>
<g>
	<g>
		<rect x="185.78" y="207.468" width="15.656" height="15.656"/>
	</g>
</g>
<g>
	<g>
		<rect x="209.785" y="207.468" width="15.656" height="15.656"/>
	</g>
</g>
<g>
	<g>
		<rect x="233.79" y="207.468" width="15.656" height="15.656"/>
	</g>
</g>
<g>
	<g>
		<rect x="129.42" y="142.758" width="80.365" height="15.656"/>
	</g>
</g>
<g>
	<g>
		<rect x="225.441" y="142.758" width="80.365" height="15.656"/>
	</g>
</g>
<g>
</g>
<g>
</g>
<g>
</g>
<g>
</g>
<g>
</g>
<g>
</g>
<g>
</g>
<g>
</g>
<g>
</g>
<g>
</g>
<g>
</g>
<g>
</g>
<g>
</g>
<g>
</g>
<g>
</g>
</svg>
